<svg width="155" height="131" viewBox="0 0 155 131" fill="none" xmlns="http://www.w3.org/2000/svg">
<path d="M64.8499 0.0949746V0H121.252V0.0988489L64.8499 0.0949746Z" fill="#E4B935"/>
<path d="M64.8499 0.0949707H121.253C120.826 2.14562 120.407 4.19821 119.971 6.24693C118.302 14.0864 116.627 21.9234 114.947 29.7577C114.269 32.9422 113.591 36.1287 112.905 39.3093C112.817 39.697 112.856 39.8346 113.292 39.8404C114.843 39.8637 116.393 39.8404 117.944 39.7803C118.702 39.7352 119.464 39.7847 120.21 39.9276C121.567 40.2145 121.945 41.1933 121.132 42.3311C120.678 42.9231 120.088 43.3965 119.411 43.7111C117.882 44.4999 116.227 44.8372 114.542 45.0562C113.712 45.1836 112.874 45.2483 112.034 45.25C111.709 45.25 111.625 45.4012 111.571 45.6629C111.054 48.118 110.533 50.5782 110.007 53.0437L105.221 75.6086C105.125 76.066 105.028 76.5215 104.936 76.9828C104.89 77.2425 104.797 77.3995 104.5 77.3453C104.42 77.3375 104.339 77.3375 104.258 77.3453H49.0708C48.404 77.3453 48.4059 77.3453 48.5494 76.663C51.312 63.6536 54.0733 50.6441 56.8334 37.6347C57.4497 34.7325 58.068 31.8316 58.6883 28.932C58.7421 28.7642 58.7311 28.5823 58.6573 28.4223C57.8335 26.7922 57.5719 25.0226 57.3993 23.2356C56.9594 18.6923 58.0157 14.3526 59.2542 10.0459C59.6128 8.8054 60.9618 8.04174 62.4329 8.20842C62.9737 8.26851 63.1288 8.1212 63.2296 7.60951C63.7199 5.15958 64.2568 2.71934 64.7801 0.275225C64.7979 0.213161 64.8213 0.152832 64.8499 0.0949707ZM84.0385 40.2164C84.1828 40.2009 84.3283 40.2009 84.4726 40.2164C86.2442 40.6196 87.1513 39.5729 87.8684 38.2065C87.9498 38.0495 88.0332 37.8906 88.1029 37.7297C88.6011 36.5958 88.5991 36.5939 87.6823 35.7914C87.622 35.7347 87.5572 35.6828 87.4885 35.6364C87.0873 35.3922 87.0892 35.1305 87.3354 34.7312C88.0979 33.4908 89.2123 32.5053 90.5367 31.9002C91.861 31.2952 93.3355 31.0979 94.7724 31.3335C95.2639 31.4001 95.7275 31.6013 96.1117 31.915C97.3716 32.9248 98.6741 33.8765 100.004 34.7952C101.227 35.6635 102.503 36.454 103.826 37.1618C104.316 37.4176 104.343 37.406 104.299 36.8788C104.214 35.8825 104.115 34.8869 104.002 33.892C103.752 31.6553 103.076 29.5949 101.645 27.7982C100.62 26.5112 99.6451 25.1835 98.5985 23.912C98.4966 23.8025 98.4211 23.6712 98.3778 23.5281C98.3345 23.385 98.3244 23.2339 98.3484 23.0863C98.581 21.2527 98.5849 21.2411 97.4413 19.7913C94.9216 16.5971 91.929 13.8603 88.8705 11.1972C88.6905 11.0607 88.4805 10.969 88.258 10.9297C86.1435 10.4095 83.9802 10.1126 81.8037 10.0439C80.5399 9.98579 79.3692 10.1253 78.3323 10.9006C77.4853 11.5344 76.5879 11.6391 75.5238 11.4627C72.0892 10.8909 68.6372 10.4219 65.1891 9.93345C64.1851 9.79196 63.1908 9.5458 62.1655 9.5962C61.2836 9.6369 60.7932 9.94314 60.5703 10.67C59.4713 14.2596 58.6321 17.9015 58.7542 21.6908C58.8178 25.1878 59.9756 28.5769 62.0647 31.382C64.3906 34.518 67.5383 36.5299 71.1376 37.8925C75.2873 39.4586 79.6251 40.0187 84.0288 40.2087L84.0385 40.2164ZM83.6508 64.0044C83.4473 64.1381 83.3136 64.2273 83.1779 64.3126C81.4974 65.367 79.8189 66.4253 78.1288 67.4641C77.7876 67.6735 77.7721 67.782 78.09 68.0456C80.8035 70.2843 83.5054 72.5404 86.2132 74.7887C86.281 74.8469 86.343 74.9457 86.4864 74.8779C86.5155 74.3778 86.5737 73.8642 86.5659 73.3506C86.5649 72.7707 86.6871 72.1973 86.9245 71.6682C87.6785 69.8695 88.3995 68.0573 89.1399 66.2528C89.2347 66.0315 89.2777 65.7915 89.2659 65.5511C89.2 63.954 89.138 62.3569 89.0895 60.7598C89.0813 60.4709 88.9935 60.1898 88.8356 59.9477C87.1222 57.176 85.4204 54.3985 83.7012 51.6288C83.6249 51.5187 83.5754 51.3923 83.5566 51.2598C83.5377 51.1272 83.5501 50.9921 83.5927 50.8651C83.8795 49.8747 84.1392 48.8765 84.4242 47.8841C84.5317 47.4958 84.5645 47.0907 84.5211 46.6901C84.4203 45.597 84.3272 44.5038 84.2517 43.4087C84.2303 43.0443 84.1276 42.9242 83.7419 42.9222C81.1749 42.924 78.6142 42.6702 76.0975 42.1644C69.5443 40.8076 64.2626 37.5281 60.4947 31.9324C60.4191 31.8219 60.3823 31.663 60.1807 31.6184C60.1594 31.7095 60.1361 31.7987 60.1168 31.8878C58.4447 39.8191 56.7733 47.7517 55.1025 55.6855C54.8932 56.6759 54.8932 56.6876 55.8895 56.7922C56.533 56.8601 57.1454 57.0655 57.8277 56.8174C61.1324 55.6293 64.4584 54.5012 67.7728 53.3286C67.9371 53.253 68.1194 53.2249 68.2989 53.2475C68.4784 53.2701 68.6479 53.3425 68.7884 53.4565C73.1882 56.5965 77.5971 59.7248 82.0149 62.8415L83.6508 64.0044ZM68.1566 55.1719C68.1566 57.5443 68.1566 59.8837 68.1566 62.2251C68.1608 62.6245 68.0822 63.0205 67.9259 63.388C66.6467 66.433 65.3829 69.4857 64.0998 72.5307C64.0269 72.6717 63.9918 72.8292 63.998 72.9879C64.0041 73.1465 64.0512 73.3008 64.1347 73.4359C64.4061 73.9127 64.6464 74.405 64.8693 74.907C64.9104 75.0339 64.9938 75.1429 65.1057 75.2156C65.2176 75.2883 65.351 75.3203 65.4837 75.3063C68.5694 75.2888 71.6531 75.3063 74.7369 75.2927C74.8706 75.2927 75.0237 75.3547 75.1672 75.1977C74.8842 74.6162 74.6109 74.0134 74.3046 73.432C74.1477 73.1522 74.1007 72.8239 74.1728 72.5113C74.9287 68.817 75.6653 65.1169 76.4328 61.4246C76.5103 61.0583 76.4328 60.8761 76.1421 60.6726C73.612 58.9114 71.0865 57.1437 68.5655 55.3696C68.4541 55.2512 68.303 55.1781 68.141 55.1641L68.1566 55.1719ZM110.827 44.0193C111.181 44.0193 111.536 44.0309 111.891 44.0193C114.009 43.934 116.101 43.6723 118.116 42.9745C118.737 42.7894 119.309 42.4697 119.791 42.0384C120.02 41.8194 120.227 41.5616 120.093 41.2301C119.975 40.9355 119.655 40.9142 119.388 40.9123C118.743 40.9123 118.093 40.8948 117.45 40.953C114.727 41.213 111.981 41.0091 109.327 40.3502C104.605 39.1775 100.397 36.9505 96.5052 34.0897C96.0003 33.6952 95.397 33.4465 94.7608 33.3706C92.9446 33.1768 91.3669 33.5974 90.1924 35.1014C89.9753 35.3786 89.9694 35.555 90.2544 35.8069C91.7526 37.1347 93.3672 38.3251 95.0786 39.3636C99.9048 42.3059 105.109 44.0154 110.811 44.0115L110.827 44.0193ZM96.3792 41.9221C96.4296 42.2593 96.4761 42.5036 96.5013 42.7652C96.5808 43.5987 96.8541 44.4088 96.7707 45.2578C96.5149 47.8608 95.9605 50.4193 95.6194 53.0107C95.3558 55.0284 95.0864 57.0481 95.1949 59.0871C95.2822 60.7346 95.8171 62.2193 97.2146 63.1981C98.5326 64.1207 99.9804 64.4017 101.502 63.6167C101.62 63.5668 101.72 63.4806 101.786 63.3705C101.852 63.2604 101.882 63.1322 101.87 63.0043C101.864 62.456 101.81 61.9093 101.709 61.3703C101.642 61.0292 101.531 60.9401 101.163 61.006C99.7944 61.2521 98.8543 60.2675 99.1218 58.9088C99.3563 57.7148 99.8312 56.6023 100.285 55.4839C101.388 52.7995 102.698 50.2061 103.843 47.5372C104.136 46.7853 104.315 45.9944 104.376 45.1899C104.407 44.9263 104.376 44.7907 104.047 44.748C103.504 44.6688 102.967 44.5575 102.438 44.4147C100.316 43.8579 98.2786 43.0196 96.3792 41.9221Z" fill="#DFAC0F"/>
<path d="M84.9163 99.7455C85.4842 99.8368 86.041 99.9875 86.5773 100.195C88.3373 100.93 89.2754 102.292 89.3606 104.151C89.5196 107.584 87.8663 110.105 85.1372 111.995C83.3832 113.203 81.3011 113.844 79.1713 113.833C76.3473 113.854 73.5214 113.833 70.6954 113.833C69.9395 113.833 69.769 113.619 69.9201 112.887C71.6297 104.603 73.3398 96.3187 75.0507 88.0347C75.2251 87.1838 75.4383 87.0172 76.2911 87.0172C78.115 87.0172 79.9389 87.0172 81.7647 87.0172C83.4529 87.0172 85.1178 87.211 86.6801 87.899C88.3741 88.6453 89.6456 89.816 89.8278 91.7464C90.0875 94.5007 89.1591 96.8169 86.9398 98.5535C86.3079 99.0191 85.6298 99.4186 84.9163 99.7455ZM77.4405 110.702V110.673C78.0375 110.673 78.6344 110.699 79.2295 110.673C82.0961 110.536 83.9762 108.882 84.4937 106.064C84.9124 103.773 83.7999 102.188 81.5147 101.843C80.0881 101.631 78.648 101.792 77.2157 101.742C76.9792 101.742 76.9656 101.874 76.9327 102.037C76.7737 102.825 76.609 103.614 76.4442 104.401C76.0411 106.339 75.6457 108.278 75.229 110.216C75.1437 110.604 75.2173 110.749 75.6515 110.72C76.2446 110.673 76.8435 110.702 77.4405 110.702ZM79.0492 98.6059C79.6611 98.6427 80.2752 98.6076 80.8789 98.5012C83.106 97.9914 84.8058 96.0086 85.0268 93.6556C85.2031 91.7852 84.3794 90.6727 82.5478 90.2966C81.7356 90.13 80.9119 90.1765 80.0939 90.1241C79.5319 90.0873 79.3419 90.2579 79.2353 90.818C78.7682 93.2835 78.2507 95.7392 77.7235 98.1949C77.6401 98.5826 77.7564 98.6272 78.0821 98.6059C78.4077 98.5845 78.7256 98.6059 79.0492 98.6059Z" fill="#162D4C"/>
<path d="M107.479 96.8692C107.733 96.2392 107.968 95.7062 108.162 95.1693C108.216 94.9571 108.345 94.7716 108.525 94.6467C108.706 94.5218 108.925 94.4658 109.142 94.489C109.966 94.5064 110.79 94.489 111.614 94.489C112.224 94.489 112.403 94.7158 112.286 95.2992C111.382 99.7688 110.477 104.239 109.573 108.71C109.481 109.07 109.449 109.444 109.48 109.815C109.563 110.435 109.77 110.654 110.391 110.735C110.778 110.786 110.941 110.999 110.875 111.363C110.765 111.982 110.637 112.598 110.488 113.208C110.456 113.395 110.357 113.563 110.209 113.682C110.062 113.8 109.876 113.861 109.687 113.852C108.911 113.888 108.135 113.812 107.381 113.627C106.189 113.313 105.537 112.544 105.386 111.301C105.369 111.16 105.363 111.016 105.349 110.85C105.14 110.9 105.066 111.074 104.962 111.195C102.558 113.819 99.5811 114.749 96.1117 114.147C93.7742 113.74 92.3205 112.28 91.7972 109.948C91.3494 107.962 91.5898 106 91.991 104.044C92.4639 101.719 93.2605 99.5265 94.7045 97.5921C97.199 94.2215 101.215 93.5063 104.27 94.2719C105.683 94.6382 106.725 95.495 107.479 96.8692ZM96.0438 107.617C96.0442 108.054 96.0818 108.49 96.1563 108.921C96.3675 110.208 97.0769 110.921 98.3639 111.137C100.884 111.559 103.295 110.464 104.549 108.204C105.792 105.928 106.399 103.359 106.305 100.767C106.26 98.9334 105.39 97.7956 103.847 97.344C102.942 97.0957 101.991 97.0592 101.07 97.2374C99.4377 97.5126 98.486 98.6058 97.8193 99.9975C96.6641 102.405 96.2532 104.988 96.0438 107.617Z" fill="#162D4C"/>
<path d="M144.858 87.1819C144.322 89.792 143.784 92.397 143.246 94.9968C142.711 97.5999 142.178 100.203 141.639 102.823C141.891 102.808 141.972 102.63 142.09 102.513C144.511 100.116 146.936 97.722 149.339 95.307C149.584 95.04 149.885 94.8302 150.22 94.6925C150.555 94.5548 150.916 94.4926 151.278 94.5104C152.163 94.5433 153.053 94.5104 153.941 94.5278C154.135 94.5278 154.379 94.4755 154.464 94.6693C154.549 94.8631 154.313 94.9988 154.179 95.1228C151.207 97.9204 148.226 100.713 145.236 103.5C144.922 103.793 144.922 103.975 145.145 104.32C146.998 107.19 148.828 110.076 150.671 112.957C150.758 113.092 150.845 113.23 150.921 113.369C151.08 113.66 150.993 113.864 150.663 113.866C149.258 113.866 147.853 113.879 146.45 113.848C146.029 113.848 145.787 113.505 145.581 113.154C144.187 110.759 142.788 108.368 141.383 105.983C141.298 105.837 141.257 105.651 141.042 105.551C140.643 107.489 140.249 109.402 139.852 111.319C139.728 111.92 139.609 112.52 139.474 113.117C139.338 113.714 139.111 113.875 138.532 113.879C137.629 113.879 136.723 113.879 135.818 113.879C135.012 113.879 134.861 113.701 135.022 112.927C135.518 110.53 136.022 108.132 136.518 105.733C137.606 100.498 138.686 95.2714 139.757 90.0524C139.774 89.9195 139.825 89.7932 139.905 89.6859C139.985 89.5785 140.092 89.4938 140.214 89.4399C141.6 88.7538 142.974 88.0444 144.354 87.3486C144.501 87.2425 144.677 87.1843 144.858 87.1819Z" fill="#162D4C"/>
<path d="M120.981 97.6173C121.653 96.7176 122.429 95.8998 123.292 95.181C125.329 93.5141 129.457 93.7738 131.372 95.524C132.923 96.9448 133.343 98.7648 133.008 100.738C132.572 103.294 131.992 105.826 131.487 108.371C131.376 108.923 131.271 109.483 131.424 110.049C131.531 110.447 131.702 110.766 132.2 110.762C132.618 110.762 132.781 111.018 132.711 111.404C132.601 112.02 132.477 112.639 132.334 113.249C132.3 113.428 132.204 113.589 132.061 113.703C131.919 113.816 131.74 113.874 131.558 113.866C130.783 113.908 130.006 113.829 129.256 113.631C127.511 113.141 126.651 111.887 126.736 109.948C126.792 108.632 127.178 107.376 127.408 106.093C127.722 104.349 128.248 102.643 128.345 100.86C128.367 100.506 128.367 100.152 128.345 99.7978C128.209 97.8402 126.988 96.906 125.067 97.2316C124.467 97.3286 123.894 97.5515 123.387 97.8855C122.879 98.2196 122.448 98.6573 122.121 99.1699C121.257 100.437 120.89 101.883 120.584 103.36C119.916 106.578 119.242 109.795 118.562 113.013C118.419 113.691 118.188 113.867 117.494 113.869C116.558 113.869 115.62 113.869 114.684 113.869C114.089 113.869 113.909 113.625 114.021 113.04C114.926 108.619 115.834 104.199 116.746 99.7785C116.847 99.29 116.967 98.8093 116.82 98.2977C116.704 97.91 116.494 97.658 116.045 97.6212C115.504 97.5766 115.388 97.3886 115.496 96.8459C115.605 96.3032 115.713 95.7702 115.826 95.2352C115.85 95.0314 115.95 94.8441 116.105 94.7097C116.26 94.5753 116.46 94.5036 116.665 94.5084C117.456 94.4578 118.251 94.535 119.018 94.7371C120.295 95.1073 120.828 95.7605 120.956 97.0824C120.956 97.2219 120.956 97.3615 120.981 97.6173Z" fill="#162D4C"/>
<path d="M7.78042 98.5554H10.7072C12.1608 98.5554 13.6145 98.5554 15.0682 98.5554C15.7679 98.5554 15.9365 98.7608 15.7989 99.447C15.6904 99.9838 15.5741 100.519 15.4539 101.054C15.3008 101.728 15.0662 101.914 14.3317 101.914C12.1027 101.914 9.87372 101.914 7.64668 101.899C7.22221 101.899 7.04583 101.98 6.95474 102.44C6.28023 105.855 5.56308 109.26 4.86338 112.672C4.66955 113.641 4.5145 113.772 3.50662 113.772C2.58595 113.772 1.66529 113.772 0.746569 113.772C0.0798165 113.772 -0.0926874 113.557 0.0429891 112.902C0.857048 108.956 1.67305 105.011 2.49098 101.067C3.38257 96.758 4.27157 92.4493 5.15799 88.1412C5.37507 87.0868 5.52044 86.9589 6.60973 86.9608L19.2083 86.9841C20.1076 86.9841 20.2433 87.1489 20.0591 88.0075C19.9506 88.5114 19.8479 89.0173 19.7277 89.5193C19.5785 90.1454 19.3575 90.3198 18.714 90.3198C15.8067 90.3198 12.8993 90.3198 9.99195 90.3198C9.6043 90.3198 9.44149 90.3915 9.36009 90.8044C8.85614 93.3725 8.31731 95.9426 7.78042 98.5554Z" fill="#162D4C"/>
<path d="M45.9076 114.259C44.3735 114.245 42.8518 113.983 41.4012 113.484C40.8899 113.325 40.4245 113.045 40.0444 112.668C39.6568 112.263 39.6568 111.892 39.996 111.458C40.2169 111.181 40.4631 110.925 40.6995 110.658C41.281 109.993 41.3779 109.97 42.2501 110.27C43.4596 110.677 44.6768 111.045 45.9618 111.109C47.0996 111.169 48.218 111.125 49.2917 110.687C49.7144 110.521 50.0892 110.253 50.3823 109.906C50.6753 109.559 50.8774 109.145 50.9702 108.7C51.1505 108 50.947 107.518 50.3326 107.13C49.6786 106.746 48.9793 106.445 48.2509 106.235C47.4252 105.967 46.6015 105.678 45.7622 105.459C42.7579 104.659 42.035 102.393 42.6223 99.8133C43.322 96.7412 45.7525 94.5801 48.9836 94.1188C51.2842 93.7951 53.5559 93.925 55.7228 94.8805C56.1582 95.0526 56.5602 95.2992 56.9109 95.6093C57.2714 95.9543 57.2986 96.2411 56.9885 96.623C56.6008 97.0843 56.1977 97.5184 55.812 97.9797C55.6181 98.2065 55.4069 98.191 55.1588 98.1193C54.2148 97.8499 53.3136 97.437 52.3425 97.2606C51.2358 97.0668 50.1271 96.999 49.0339 97.313C48.5626 97.4375 48.1311 97.6812 47.7812 98.0206C47.4312 98.3601 47.1744 98.7838 47.0356 99.2512C46.6867 100.288 47.0686 101.029 48.1113 101.356C49.4022 101.761 50.6989 102.145 51.9878 102.538C52.6394 102.719 53.2663 102.98 53.8543 103.314C54.9436 103.963 55.4825 104.938 55.5464 106.184C55.7189 109.53 53.9183 112.183 50.6 113.486C49.1754 114.044 47.6907 114.265 45.9076 114.259Z" fill="#162D4C"/>
<path d="M62.1073 97.3943C61.5162 97.3943 60.9192 97.3943 60.3242 97.3943C59.6341 97.3943 59.481 97.2141 59.6128 96.5531C59.7078 96.0783 59.8067 95.6053 59.921 95.1363C59.9532 94.9421 60.0562 94.7667 60.2101 94.6439C60.364 94.5212 60.5579 94.4597 60.7544 94.4715C61.2875 94.4715 61.8224 94.4405 62.3535 94.4715C62.7101 94.4967 62.8187 94.361 62.8749 94.0315C63.0222 93.1593 63.2121 92.2871 63.3788 91.4207C63.4098 91.2618 63.4234 91.1164 63.5998 91.033C65.1949 90.2306 66.7882 89.4204 68.4279 88.5889C68.4706 89.1103 68.3019 89.5464 68.2186 89.9883C67.9647 91.3451 67.6875 92.6767 67.4007 94.0179C67.3251 94.3687 67.3774 94.5025 67.7786 94.4812C68.4376 94.4482 69.1024 94.4657 69.7634 94.4812C70.2983 94.4909 70.465 94.6847 70.37 95.2138C70.2751 95.743 70.1607 96.2236 70.0386 96.7237C69.9165 97.2238 69.6064 97.4157 69.1199 97.4118C68.426 97.4118 67.7302 97.4118 67.0363 97.4118C66.7882 97.4118 66.6622 97.468 66.6079 97.7316C65.8882 101.337 65.162 104.939 64.4293 108.539C64.3404 108.952 64.3611 109.381 64.4894 109.784C64.5874 110.06 64.7703 110.297 65.0121 110.463C65.2538 110.628 65.5418 110.713 65.8346 110.704C67.1157 110.737 67.1274 110.749 66.8831 112.011C66.8076 112.398 66.7223 112.799 66.6312 113.191C66.6045 113.37 66.5137 113.533 66.3758 113.651C66.2379 113.768 66.0621 113.831 65.8811 113.829C64.8499 113.854 63.8091 113.922 62.7799 113.739C60.7641 113.379 59.766 112.189 59.7311 110.119C59.7078 108.762 60.078 107.469 60.3435 106.159C60.925 103.285 61.5239 100.412 62.1132 97.5378C62.1176 97.4899 62.1157 97.4417 62.1073 97.3943Z" fill="#162D4C"/>
<path d="M35.346 96.6346C35.5337 96.3939 35.7336 96.163 35.9449 95.9426C37.3928 94.5704 39.1624 94.111 41.1045 94.1478C41.4921 94.1478 41.6608 94.2719 41.5561 94.708C41.3468 95.5686 41.1859 96.4408 40.9998 97.3072C40.8351 98.0825 40.5812 98.2104 39.8078 98.1154C37.825 97.8731 35.6561 98.5554 35.0107 101.41C34.1501 105.229 33.3264 109.057 32.491 112.881C32.2972 113.794 32.1266 113.933 31.1807 113.931C30.326 113.931 29.4693 113.931 28.6145 113.931C27.9458 113.931 27.7811 113.716 27.9226 113.057C28.8749 108.63 29.8285 104.205 30.7834 99.7804C30.8858 99.39 30.9366 98.988 30.9346 98.5845C30.9036 97.941 30.671 97.6735 30.0255 97.5688C29.6379 97.5068 29.4557 97.2897 29.5313 96.8943C29.6418 96.3128 29.7523 95.7314 29.8841 95.1499C29.9111 94.9542 30.0093 94.7754 30.1598 94.6474C30.3102 94.5194 30.5026 94.4513 30.7001 94.456C31.7002 94.4405 32.7022 94.456 33.6733 94.7526C34.5765 95.0278 35.1309 95.6093 35.2084 96.59L35.346 96.6346Z" fill="#162D4C"/>
<path d="M18.3905 110.545C18.4312 109.163 18.8305 107.843 19.1173 106.506C19.9062 102.823 20.7164 99.1408 21.5207 95.4581C21.668 94.7817 21.9084 94.5976 22.5868 94.5937C23.4913 94.5937 24.3958 94.5937 25.3003 94.5937C25.9806 94.5937 26.1454 94.7875 26.0039 95.4446C25.0516 99.856 24.096 104.266 23.1372 108.675C23.006 109.209 22.9583 109.76 22.9957 110.309C23.0539 110.927 23.2729 111.162 23.8699 111.251C24.2265 111.305 24.3913 111.516 24.3312 111.856C24.2188 112.491 24.0908 113.123 23.9435 113.749C23.9068 113.917 23.8131 114.066 23.6784 114.172C23.5437 114.278 23.3764 114.334 23.2051 114.331C22.236 114.362 21.2668 114.284 20.3559 113.899C19.0049 113.336 18.3556 112.201 18.3905 110.545Z" fill="#162D4C"/>
<path d="M86.1044 125.687C87.7403 126.615 87.8837 128.478 86.4921 129.821C85.4764 130.81 83.2591 131.127 81.9992 130.468C81.7055 130.327 81.4583 130.105 81.2866 129.828C81.1149 129.551 81.0259 129.23 81.0301 128.904C80.992 128.345 81.1119 127.786 81.3761 127.292C81.6403 126.797 82.0383 126.387 82.5245 126.107C82.7668 125.956 83.0323 125.842 83.2843 125.72C83.2843 125.683 83.2843 125.638 83.2688 125.631C81.8907 124.917 82.1969 123.609 82.918 122.584C83.2825 122.103 83.8047 121.766 84.393 121.632C85.051 121.458 85.7393 121.432 86.4087 121.555C87.0522 121.661 87.6414 121.929 87.8411 122.619C87.9629 122.986 87.9886 123.379 87.9156 123.759C87.8427 124.14 87.6736 124.495 87.4244 124.791C87.0813 125.195 86.6277 125.437 86.1044 125.687ZM82.6815 128.42C82.6671 128.696 82.7557 128.968 82.93 129.183C83.1044 129.397 83.3521 129.54 83.6254 129.583C84.9066 129.858 86.1451 128.548 85.8253 127.257C85.7739 127.002 85.6358 126.772 85.4344 126.607C85.2331 126.442 84.9808 126.352 84.7205 126.352C83.6293 126.305 82.6776 127.266 82.6815 128.42ZM85.3621 122.667C85.1769 122.666 84.9932 122.701 84.8217 122.771C84.6501 122.841 84.4939 122.943 84.3622 123.074C84.2304 123.204 84.1256 123.359 84.0537 123.529C83.9818 123.7 83.9443 123.883 83.9433 124.068C83.9354 124.197 83.9534 124.326 83.996 124.448C84.0387 124.57 84.1052 124.681 84.1916 124.777C84.2781 124.873 84.3828 124.95 84.4996 125.005C84.6163 125.06 84.7429 125.09 84.8717 125.096C85.5792 125.107 86.3254 124.32 86.3409 123.563C86.3506 123.031 85.9552 122.671 85.3621 122.667Z" fill="#162D4C"/>
<path d="M95.0689 123.299C95.0289 122.867 94.848 122.461 94.5541 122.143C94.2602 121.824 93.8696 121.611 93.4427 121.537C92.8358 121.429 92.2112 121.477 91.6285 121.679C89.9577 122.281 89.3511 123.642 89.1941 125.249C89.0293 126.978 90.0333 127.869 91.7661 127.668C92.4212 127.59 92.8729 127.224 93.338 126.796C93.2925 127.36 93.1138 127.905 92.8166 128.387C92.3146 129.294 91.5645 129.755 90.5024 129.577C90.1505 129.537 89.8032 129.463 89.4654 129.356C88.884 129.137 88.8704 129.651 88.7056 129.916C88.5002 130.248 88.8588 130.319 89.0487 130.412C90.6516 131.209 92.4116 130.866 93.5067 129.412C94.8789 127.615 95.3596 125.532 95.0689 123.299ZM93.6811 124.158C93.6102 124.703 93.4345 125.23 93.1636 125.708C92.8573 126.21 92.4367 126.513 91.8184 126.483C91.0432 126.464 90.704 126.117 90.7214 125.229C90.7572 124.703 90.8941 124.188 91.1246 123.714C91.2693 123.387 91.51 123.113 91.8146 122.927C92.2662 122.665 92.7643 122.524 93.2314 122.822C93.6985 123.121 93.7683 123.634 93.6811 124.158Z" fill="#162D4C"/>
<path d="M99.4417 128.505H96.011C95.5361 128.505 95.445 128.356 95.6621 127.924C95.7483 127.77 95.8538 127.628 95.9761 127.501C97.5441 125.702 99.1374 123.925 100.674 122.101C101.126 121.564 101.644 121.62 102.204 121.649C102.52 121.665 102.397 121.927 102.361 122.097C102.087 123.438 101.81 124.778 101.531 126.117C101.484 126.42 101.419 126.719 101.337 127.015C101.227 127.356 101.378 127.375 101.657 127.391C101.876 127.402 102.266 127.197 102.256 127.681C102.242 128.34 102.099 128.55 101.607 128.497C101.114 128.445 100.942 128.641 100.911 129.079C100.889 129.238 100.857 129.396 100.816 129.552C100.574 130.738 100.574 130.728 99.3622 130.662C99.0618 130.645 99.0075 130.525 99.0618 130.275C99.1878 129.707 99.306 129.139 99.4417 128.505ZM100.349 124.078L97.5868 127.373C98.2884 127.373 98.8602 127.373 99.432 127.373C99.4676 127.378 99.5039 127.375 99.5385 127.366C99.5731 127.356 99.6053 127.339 99.633 127.316C99.6607 127.293 99.6833 127.264 99.6994 127.232C99.7155 127.2 99.7248 127.165 99.7266 127.129C99.9204 126.16 100.12 125.187 100.347 124.076L100.349 124.078Z" fill="#162D4C"/>
<path d="M44.1533 130.769C43.4134 130.768 42.6807 130.623 41.996 130.342C41.8255 130.269 41.4902 130.224 41.6433 129.955C41.7964 129.685 41.8235 129.162 42.3701 129.292C43.1186 129.491 43.8907 129.586 44.665 129.575C45.072 129.565 45.4708 129.458 45.8279 129.263C46.7292 128.759 46.7621 127.798 45.8706 127.272C45.4319 127.039 44.9787 126.835 44.5138 126.66C42.6008 125.836 42.2461 123.97 43.7637 122.524C44.9848 121.361 46.4559 121.262 48.0123 121.661C48.1519 121.698 48.2875 121.748 48.4252 121.795C49.1636 122.049 49.1772 122.103 48.774 122.741C48.7531 122.787 48.7231 122.83 48.6858 122.865C48.6485 122.9 48.6046 122.927 48.5567 122.945C48.5087 122.963 48.4577 122.972 48.4065 122.97C48.3553 122.968 48.305 122.956 48.2585 122.935C47.5019 122.699 46.7067 122.612 45.9171 122.679C45.6493 122.695 45.3892 122.775 45.1584 122.912C44.9276 123.049 44.7326 123.239 44.5894 123.466C44.2017 124.096 44.3452 124.667 45.0061 124.991C45.4538 125.21 45.9268 125.379 46.3842 125.573C48.3573 126.41 48.6364 128.612 46.9424 129.934C46.2369 130.476 45.3046 130.763 44.1533 130.769Z" fill="#162D4C"/>
<path d="M55.591 125.109C56.0426 124.623 56.4205 124.163 57.0504 124.024C58.758 123.648 59.9365 124.788 59.5876 126.497C59.4248 127.301 59.2523 128.104 59.0972 128.91C59.0429 129.197 59.01 129.455 59.3957 129.614C59.6981 129.738 59.4364 130.038 59.4267 130.259C59.4305 130.307 59.4242 130.356 59.4082 130.401C59.3923 130.447 59.367 130.489 59.334 130.524C59.301 130.56 59.261 130.588 59.2166 130.607C59.1722 130.626 59.1242 130.636 59.0759 130.635C58.0176 130.755 57.3547 130.075 57.5408 129.021C57.6804 128.228 57.8509 127.441 58.006 126.65C58.0343 126.523 58.0518 126.393 58.0583 126.263C58.0719 125.803 58.0583 125.338 57.5718 125.1C57.1532 124.892 56.4961 125.069 56.1201 125.487C55.7441 125.906 55.5716 126.456 55.4553 127.018C55.2304 128.09 54.9978 129.16 54.7866 130.236C54.7845 130.295 54.7698 130.354 54.7437 130.407C54.7175 130.461 54.6803 130.508 54.6346 130.546C54.5889 130.585 54.5357 130.613 54.4784 130.629C54.4211 130.645 54.361 130.649 54.302 130.641C53.1682 130.668 53.1701 130.678 53.3988 129.567C53.6508 128.336 53.9008 127.105 54.1489 125.875C54.209 125.574 54.2943 125.257 53.8504 125.144C53.6566 125.094 53.6992 124.91 53.7496 124.782C53.8388 124.559 53.7283 124.235 54.0694 124.138C54.2335 124.086 54.407 124.071 54.5777 124.094C54.7483 124.116 54.912 124.176 55.0571 124.268C55.2022 124.361 55.3252 124.484 55.4174 124.629C55.5097 124.775 55.5689 124.939 55.591 125.109Z" fill="#162D4C"/>
<path d="M70.1179 127.912C69.6992 127.912 69.2767 127.933 68.86 127.912C68.5499 127.893 68.4723 128.024 68.4723 128.3C68.4316 129.319 68.9821 129.86 69.9919 129.736C70.4072 129.684 70.8162 129.59 71.213 129.457C71.5212 129.354 71.6355 129.457 71.7576 129.718C71.8797 129.98 71.8255 130.182 71.5638 130.313C70.7673 130.718 69.87 130.881 68.9821 130.782C67.48 130.635 66.7996 129.765 66.9411 128.253C67.0019 127.432 67.2183 126.629 67.5788 125.888C68.3211 124.41 69.7109 123.727 71.3041 124.047C72.2306 124.241 72.7771 124.848 72.8237 125.792C72.8392 126.082 72.8197 126.373 72.7655 126.658C72.5717 127.592 72.184 127.908 71.2324 127.927C70.8622 127.927 70.49 127.927 70.1198 127.927L70.1179 127.912ZM68.7282 126.852H70.7963C70.8755 126.861 70.9558 126.848 71.0278 126.814C71.0998 126.779 71.1607 126.725 71.2033 126.658C71.4126 126.299 71.3138 125.547 71.0095 125.253C70.7052 124.958 70.2516 124.935 69.802 125.191C69.172 125.545 68.9414 126.179 68.7282 126.852Z" fill="#162D4C"/>
<path d="M25.4728 87.2207C25.9884 87.2207 26.5039 87.2091 27.0234 87.2207C27.4924 87.2343 27.6766 87.4494 27.5874 87.8991C27.3858 88.9095 27.1726 89.9161 26.9478 90.9188C26.8296 91.4363 26.5602 91.6476 26.0175 91.6515C25.0483 91.6515 24.0792 91.6515 23.1101 91.6515C22.5054 91.6418 22.3348 91.4112 22.4647 90.8219C22.6585 89.878 22.8678 88.9341 23.0791 87.994C23.2051 87.4319 23.4551 87.2323 24.0191 87.2187C24.5018 87.2187 24.9882 87.2187 25.4689 87.2187L25.4728 87.2207Z" fill="#162D4C"/>
<path d="M78.4331 123.499C77.9098 123.716 77.4407 123.911 76.9678 124.099C76.8515 124.146 76.6829 124.227 76.6111 124.181C76.4716 124.092 76.5821 123.915 76.5898 123.776C76.6189 123.272 76.8767 122.979 77.3651 122.795C78.2528 122.454 79.1095 122.049 79.9876 121.675C80.1155 121.618 80.257 121.481 80.3752 121.562C80.4934 121.644 80.3926 121.832 80.3752 121.963C79.8189 124.696 79.253 127.427 78.7025 130.16C78.6289 130.527 78.466 130.658 78.0842 130.653C76.9814 130.637 76.9891 130.653 77.2159 129.577C77.619 127.67 78.0106 125.759 78.406 123.849C78.4195 123.758 78.4176 123.659 78.4331 123.499Z" fill="#162D4C"/>
<path d="M60.8533 128.451C60.8732 127.56 61.0862 126.685 61.4774 125.885C62.2856 124.198 64.441 123.44 66.0865 124.27C66.2959 124.377 66.6854 124.431 66.5478 124.817C66.3908 125.247 66.009 125.431 65.633 125.253C64.1502 124.555 63.1016 125.433 62.7043 126.67C62.4907 127.279 62.3934 127.924 62.4174 128.569C62.4678 129.371 62.966 129.798 63.7742 129.732C64.1577 129.681 64.5338 129.585 64.8945 129.445C65.0883 129.381 65.2628 129.319 65.3616 129.589C65.443 129.811 65.6 130.005 65.3345 130.232C64.5185 130.928 62.4136 130.982 61.5743 130.312C60.9618 129.835 60.8378 129.168 60.8533 128.451Z" fill="#162D4C"/>
<path d="M49.3596 129.178C49.5379 128.288 49.7473 127.239 49.9663 126.175C50.0787 125.623 50.2105 125.074 50.3074 124.52C50.309 124.46 50.3232 124.402 50.349 124.348C50.3749 124.294 50.4118 124.247 50.4574 124.208C50.503 124.17 50.5562 124.141 50.6135 124.125C50.6709 124.109 50.731 124.105 50.79 124.113C51.9355 124.078 51.9297 124.068 51.701 125.173C51.4471 126.404 51.1951 127.633 50.9528 128.866C50.8947 129.164 50.8385 129.447 51.2552 129.608C51.5498 129.72 51.2998 129.996 51.2901 130.211C51.2804 130.426 51.2223 130.583 50.9761 130.631C50.1058 130.802 49.3596 130.215 49.3596 129.178Z" fill="#162D4C"/>
<path d="M51.7105 121.347C51.9043 121.347 52.0536 121.347 52.197 121.347C52.3404 121.347 52.4703 121.409 52.4412 121.572C52.3753 121.934 52.2939 122.293 52.2048 122.65C52.1699 122.785 52.0458 122.832 51.9101 122.857C50.7666 123.062 50.6348 122.901 50.8674 121.779C50.9856 121.171 51.4237 121.399 51.7105 121.347Z" fill="#162D4C"/>
<path d="M84.0287 40.2087C79.6251 40.0149 75.2873 39.4586 71.1337 37.8828C67.5344 36.526 64.3867 34.5083 62.0608 31.3723C59.9717 28.5672 58.8139 25.1781 58.7503 21.6811C58.6359 17.8918 59.4674 14.2499 60.5664 10.6603C60.7893 9.93345 61.2797 9.62721 62.1616 9.58651C63.1869 9.53612 64.1812 9.78033 65.1852 9.92376C68.6333 10.4122 72.0853 10.8812 75.5199 11.453C76.582 11.6294 77.4814 11.5247 78.3284 10.8909C79.3653 10.1156 80.536 9.97609 81.7998 10.0342C83.9775 10.1078 86.1414 10.4099 88.256 10.9355C88.4785 10.9748 88.6885 11.0665 88.8685 11.203C91.927 13.8661 94.9139 16.6029 97.4394 19.7971C98.5829 21.2431 98.5791 21.2547 98.3465 23.0921C98.3224 23.2397 98.3325 23.3908 98.3758 23.5339C98.4192 23.6771 98.4947 23.8084 98.5965 23.9178C99.6432 25.1893 100.618 26.517 101.643 27.804C103.074 29.6007 103.75 31.6611 104 33.8978C104.113 34.8915 104.212 35.8871 104.297 36.8846C104.341 37.4118 104.314 37.4234 103.824 37.1676C102.501 36.4598 101.225 35.6694 100.002 34.801C98.6721 33.8823 97.3696 32.9306 96.1098 31.9208C95.7255 31.6071 95.262 31.4059 94.7704 31.3393C93.3336 31.1037 91.8591 31.301 90.5347 31.9061C89.2103 32.5111 88.0959 33.4966 87.3334 34.737C87.0873 35.1363 87.0853 35.398 87.4865 35.6422C87.5552 35.6886 87.62 35.7405 87.6804 35.7973C88.5972 36.5919 88.5991 36.5939 88.101 37.7355C88.0312 37.8964 87.9479 38.0553 87.8664 38.2123C87.1493 39.5691 86.2422 40.6254 84.4707 40.2223C84.3243 40.2016 84.1761 40.1971 84.0287 40.2087ZM88.727 23.3053L86.1085 20.367C85.8894 20.1208 85.7693 20.367 85.6413 20.4716C84.3156 21.6268 82.9924 22.7859 81.6718 23.9488C81.5594 24.0477 81.3927 24.1136 81.3695 24.3268L88.727 23.3053Z" fill="#162D4C"/>
<path d="M83.6353 63.9967L82.0052 62.8337C77.5938 59.7093 73.185 56.5829 68.7787 53.4546C68.6382 53.3406 68.4687 53.2682 68.2892 53.2456C68.1097 53.223 67.9274 53.2511 67.7631 53.3267C64.4487 54.4896 61.1227 55.6196 57.818 56.8155C57.1299 57.0636 56.5174 56.8582 55.8798 56.7903C54.8835 56.6857 54.8835 56.674 55.0928 55.6836C56.7597 47.7459 58.4273 39.8107 60.0954 31.8782C60.1148 31.789 60.1381 31.6999 60.1594 31.6088C60.3532 31.6533 60.3978 31.8123 60.4734 31.9228C64.2413 37.5184 69.523 40.8057 76.0762 42.1547C78.5928 42.6605 81.1536 42.9144 83.7206 42.9126C84.1082 42.9126 84.209 43.0347 84.2303 43.3991C84.2982 44.4942 84.399 45.5873 84.4997 46.6805C84.5432 47.081 84.5103 47.4862 84.4028 47.8744C84.1179 48.8668 83.8582 49.865 83.5713 50.8554C83.5288 50.9824 83.5164 51.1175 83.5352 51.2501C83.5541 51.3827 83.6036 51.509 83.6799 51.6191C85.3991 54.3888 87.1009 57.1663 88.8143 59.938C88.9721 60.1801 89.06 60.4612 89.0682 60.7501C89.1166 62.3472 89.1786 63.9443 89.2445 65.5414C89.2564 65.7819 89.2133 66.0218 89.1186 66.2431C88.3782 68.0476 87.6571 69.8598 86.9032 71.6585C86.6658 72.1876 86.5436 72.761 86.5446 73.3409C86.5446 73.8545 86.4942 74.3682 86.4651 74.8682C86.3217 74.9361 86.2597 74.8372 86.1918 74.7791C83.4783 72.5307 80.7841 70.2746 78.0687 68.036C77.7508 67.7743 77.7663 67.6658 78.1074 67.4545C79.7976 66.4156 81.4761 65.3573 83.1565 64.3029C83.298 64.2196 83.4318 64.1304 83.6353 63.9967Z" fill="#162D4C"/>
<path d="M68.141 55.1641C68.2995 55.1803 68.4468 55.2533 68.5558 55.3695C71.082 57.1372 73.6075 58.9029 76.1323 60.6667C76.427 60.8702 76.5006 61.0544 76.4231 61.4188C75.6478 65.1014 74.919 68.8112 74.1631 72.5055C74.0909 72.8181 74.1379 73.1463 74.2949 73.4261C74.6011 74.0076 74.8764 74.6065 75.1574 75.1919C75.014 75.3488 74.8609 75.2868 74.7271 75.2868C71.6434 75.2868 68.5597 75.2868 65.474 75.3004C65.3413 75.3144 65.2078 75.2824 65.096 75.2097C64.9841 75.137 64.9006 75.0281 64.8596 74.9011C64.6367 74.4011 64.3963 73.9068 64.125 73.43C64.0415 73.295 63.9943 73.1406 63.9882 72.982C63.9821 72.8234 64.0172 72.6659 64.0901 72.5248C65.3732 69.4799 66.6369 66.4272 67.9162 63.3822C68.0725 63.0146 68.151 62.6187 68.1468 62.2192C68.1333 59.8759 68.141 57.5365 68.141 55.1641Z" fill="#162D4C"/>
<path d="M110.811 44.0115C105.109 44.0115 99.9047 42.3059 95.0668 39.3597C93.3554 38.3212 91.7408 37.1309 90.2426 35.8031C89.9576 35.5511 89.9635 35.3747 90.1805 35.0976C91.3551 33.5935 92.9328 33.1748 94.749 33.3667C95.3852 33.4426 95.9885 33.6913 96.4934 34.0858C100.385 36.9466 104.593 39.1737 109.315 40.3463C111.966 41.0009 114.71 41.2015 117.428 40.9394C118.07 40.8813 118.719 40.8929 119.366 40.8987C119.634 40.8987 119.948 40.922 120.072 41.2166C120.206 41.548 119.998 41.798 119.77 42.0248C119.287 42.4562 118.715 42.7758 118.095 42.961C116.079 43.6587 113.988 43.9204 111.869 44.0057C111.521 44.0231 111.166 44.0115 110.811 44.0115Z" fill="#162D4C"/>
<path d="M96.3791 41.9221C98.2802 43.0207 100.32 43.8597 102.444 44.4166C102.973 44.5594 103.51 44.6707 104.053 44.7499C104.372 44.7926 104.413 44.9283 104.382 45.1919C104.321 45.9963 104.142 46.7873 103.849 47.5391C102.704 50.2041 101.393 52.7975 100.29 55.4858C99.8311 56.6042 99.3563 57.7167 99.1276 58.9107C98.8601 60.2675 99.8001 61.254 101.169 61.0079C101.537 60.942 101.647 61.0311 101.715 61.3722C101.816 61.9112 101.87 62.4579 101.876 63.0062C101.887 63.1341 101.858 63.2623 101.792 63.3724C101.725 63.4825 101.626 63.5687 101.508 63.6187C99.9862 64.4036 98.5383 64.1226 97.2203 63.2C95.8229 62.2212 95.2821 60.7365 95.2007 59.089C95.0921 57.05 95.3616 55.0303 95.6252 53.0126C95.9663 50.4232 96.5206 47.8647 96.7765 45.2597C96.8598 44.4108 96.5826 43.6006 96.5071 42.7671C96.476 42.5113 96.4295 42.2535 96.3791 41.9221Z" fill="#162D4C"/>
<path d="M88.7271 23.3053L81.3618 24.3268C81.3851 24.1136 81.5557 24.0477 81.6642 23.9488C82.9835 22.7859 84.3066 21.6268 85.6337 20.4716C85.7616 20.3611 85.8818 20.1208 86.1008 20.367L88.7271 23.3053Z" fill="#DCAA10"/>
</svg>
